<?xml version="1.0" encoding="utf-8"?>
<!-- Generator: Adobe Illustrator 19.0.0, SVG Export Plug-In . SVG Version: 6.00 Build 0)  -->
<svg version="1.1" id="layer" xmlns="http://www.w3.org/2000/svg" xmlns:xlink="http://www.w3.org/1999/xlink" x="0px" y="0px"
	 viewBox="-153 -46 652 652" style="enable-background:new -153 -46 652 652;" xml:space="preserve">
<style type="text/css">
	.st0{fill:#434244;}
	.st1{fill:#6D6E71;}
	.st2{fill:#2B8B4B;}
	.st3{fill:#D9782D;}
</style>
<path class="st0" d="M-126.2,351.4h4.5l-4.2,17.4c-0.6,2.6-0.5,4.5,0.4,5.8c0.9,1.3,2.4,1.9,4.8,1.9c2.3,0,4.2-0.6,5.7-1.9
	c1.5-1.3,2.6-3.3,3.2-5.8l4.2-17.4h4.5l-4.2,17.8c-1,3.9-2.6,6.8-5,8.7c-2.4,1.9-5.5,2.9-9.3,2.9c-3.8,0-6.5-1-7.9-2.9
	c-1.4-1.9-1.7-4.8-0.7-8.7L-126.2,351.4z M-99.6,380.1l4.8-20c0.3,0.6,0.6,1.2,0.9,1.7c0.3,0.5,0.7,1.1,1.1,1.6l13.9,17.9l7.1-29.9
	h-4.2l-4.7,19.9c-0.4-0.7-0.8-1.3-1.1-1.9c-0.3-0.5-0.7-1.1-1.1-1.5l-13.6-17.6l-7.1,29.9H-99.6z M-67.8,380.1l6.8-28.7h-4.5
	l-6.9,28.7H-67.8z M-56.7,380.1l3.2-13.5h11l1-4.1h-11.1l1.7-7.1h11l0.9-3.9h-15.6l-6.9,28.7H-56.7z M-36.1,380.1l6.9-28.7h-4.5
	l-6.9,28.7H-36.1z M-13.9,380.1l1-4.2H-24l2.2-9.3h11.1l1-4.1h-11.1l1.7-7.2h11l0.9-3.9h-15.6l-6.9,28.7H-13.9z M-2.6,380.1h1.2
	c3.3,0,5.8-0.2,7.5-0.6c1.6-0.4,3.2-1.1,4.6-2.1c1.9-1.3,3.6-2.9,4.9-4.8c1.3-2,2.2-4.3,2.9-6.8c0.6-2.6,0.7-4.8,0.4-6.8
	c-0.4-2-1.2-3.7-2.5-4.9c-1-1-2.2-1.6-3.8-2.1c-1.5-0.4-4.3-0.6-8.3-0.6h-6.1l-6.8,28.7H-2.6z M1.7,355.6h1.7H5c2.4,0,4,0.1,5.1,0.4
	c1,0.3,1.8,0.8,2.5,1.5c0.8,0.9,1.4,2.1,1.6,3.4c0.2,1.4,0.1,3-0.4,4.8c-0.5,1.9-1.1,3.5-1.9,4.8c-0.9,1.4-1.9,2.5-3.2,3.5
	c-1,0.7-2,1.1-3.1,1.4c-1.1,0.3-2.7,0.4-4.8,0.4h-3.8L1.7,355.6z M41.2,367.2h0.9c2,0,3.5-0.1,4.6-0.3c1-0.2,2-0.6,2.8-1.1
	c1-0.6,1.9-1.6,2.7-2.7c0.7-1.1,1.3-2.4,1.6-3.7c0.3-1.4,0.4-2.6,0.1-3.7c-0.2-1.1-0.7-2.1-1.4-2.7c-0.6-0.5-1.3-0.9-2.3-1.1
	c-0.9-0.2-2.4-0.3-4.4-0.3H39l-6.9,28.7h4.3l3.1-12.9H41.2z M42.6,355.4h1.2c2.4,0,4,0.3,4.7,0.9c0.8,0.6,1,1.7,0.6,3.2
	c-0.3,1.4-1,2.4-2,3c-1,0.6-2.7,0.8-5.3,0.8h-1.2L42.6,355.4z M74.1,380.1l-6.4-29.9L47,380.1h4.8l5-7.4h11.1l1.4,7.4H74.1z
	 M63.8,362.3c0.3-0.5,0.6-1,0.9-1.5c0.3-0.5,0.6-1.1,0.9-1.7c0,0.7,0,1.3,0.1,1.8c0,0.5,0.1,1,0.2,1.4l1.3,6.6h-7.8L63.8,362.3z
	 M85.1,380.1l3.1-13.1l13.4-15.6h-4.6l-8.3,9.6c-0.3,0.3-0.6,0.7-0.9,1.1c-0.3,0.4-0.6,0.9-0.9,1.3c-0.1-0.5-0.2-0.9-0.3-1.3
	c-0.1-0.4-0.2-0.7-0.3-1l-3.5-9.7h-4.8l5.7,15.6l-3.1,13.1H85.1z M123.7,380.1h4.2l0.4-29.9l-12.4,18.1c-0.1,0.2-0.3,0.4-0.5,0.8
	c-0.9,1.2-1.5,2.3-2,3.1c-0.1-1-0.2-1.8-0.3-2.5c-0.1-0.7-0.2-1.2-0.3-1.4l-3.9-18.1l-13.8,29.9h4.2l6.4-14.2
	c0.3-0.7,0.6-1.4,0.8-2.1c0.2-0.7,0.4-1.3,0.6-1.9c0,0.6,0.1,1.2,0.1,1.8c0.1,0.6,0.2,1.2,0.4,1.8l3.6,15.6l11-15.3
	c0.5-0.7,0.9-1.4,1.3-2c0.4-0.6,0.7-1.3,1-1.9c-0.1,0.5-0.1,1.2-0.2,2.1c-0.2,1-0.2,1.6-0.2,1.8L123.7,380.1z M147.2,380.1l1-4.2
	h-11l2.2-9.3h11.1l1-4.1h-11l1.7-7.2h11l1-3.9h-15.6l-6.9,28.7H147.2z M156.6,380.1l4.8-20c0.3,0.6,0.5,1.2,0.9,1.7
	c0.3,0.5,0.6,1.1,1,1.6l13.9,17.9l7.1-29.9h-4.2l-4.8,19.9c-0.4-0.7-0.7-1.3-1.1-1.9c-0.4-0.5-0.7-1.1-1.1-1.5l-13.6-17.6l-7.1,29.9
	H156.6z M206.2,355.4l0.9-3.9h-19.4l-0.9,3.9h7.4l-5.9,24.8h4.6l5.9-24.8H206.2z M203.6,374.4c0,2.1,0.6,3.7,1.8,4.8
	c1.3,1.1,3.1,1.7,5.5,1.7c2.8,0,5.3-0.8,7.4-2.4c2-1.6,3.4-3.8,4-6.5c0.5-1.9,0.3-3.4-0.4-4.7c-0.7-1.3-2.3-2.6-4.8-3.9
	c-0.1-0.1-0.3-0.1-0.5-0.2c-2.8-1.5-4-3.1-3.6-4.9c0.3-1.1,0.8-2,1.7-2.6c0.9-0.7,1.9-1,3.1-1c0.9,0,1.6,0.2,2.2,0.6
	c0.5,0.4,1,1.1,1.4,2l4-1.9c-0.2-1.5-0.9-2.7-2-3.5c-1.2-0.8-2.8-1.2-4.9-1.2c-2.5,0-4.7,0.7-6.6,2.2c-1.9,1.4-3.1,3.4-3.7,5.7
	c-0.5,1.8-0.3,3.3,0.4,4.6c0.7,1.3,2.5,2.6,5.2,4.2c0.2,0.1,0.4,0.2,0.8,0.4c2.4,1.3,3.4,2.8,3,4.5c-0.3,1.3-1,2.3-1.9,3.1
	c-1,0.8-2.1,1.2-3.5,1.2c-1.4,0-2.5-0.4-3.3-1c-0.8-0.7-1.2-1.6-1.2-2.9L203.6,374.4 M241.7,380.1l6.9-28.7H244l-6.9,28.7H241.7z
	 M252.4,380.1l4.8-20c0.3,0.6,0.6,1.2,0.9,1.7c0.3,0.5,0.7,1.1,1,1.6l13.9,17.9l7.1-29.9h-4.2l-4.7,19.9c-0.4-0.7-0.8-1.3-1.2-1.9
	c-0.3-0.5-0.7-1.1-1-1.5l-13.6-17.6l-7.2,29.9H252.4z M302.1,355.4l0.9-3.9h-19.4l-0.9,3.9h7.4l-5.9,24.8h4.6l5.9-24.8H302.1z
	 M315.2,380.1l1-4.2h-11.1l2.2-9.3h11.1l1-4.1h-11.1l1.7-7.2h11.1l1-3.9h-15.6l-6.9,28.7H315.2z M328.3,367.3l6.2,12.8h5.2
	l-6.5-13.1c2.2-0.3,4-1,5.3-2.3c1.4-1.3,2.4-3.1,2.9-5.4c0.3-1.3,0.4-2.6,0.2-3.6c-0.2-1.1-0.7-2-1.4-2.7c-0.6-0.6-1.4-1-2.3-1.2
	c-1-0.2-2.4-0.4-4.2-0.4h-6.3l-6.9,28.7h4.3l3.1-12.8H328.3z M330.9,355.4h0.8c2.3,0,3.8,0.3,4.5,0.9c0.7,0.6,0.9,1.8,0.5,3.3
	c-0.4,1.5-1,2.5-1.9,3c-0.9,0.6-2.6,0.9-5,0.9h-0.8L330.9,355.4z M346.9,380.1l3.2-13.5h11.1l1-4.1h-11.1l1.7-7.1h11l1-3.9h-15.6
	l-6.9,28.7H346.9z M384.8,380.1l-6.4-29.9l-20.7,29.9h4.8l5-7.4h11.1l1.4,7.4H384.8z M374.6,362.3c0.3-0.5,0.6-1,0.9-1.5
	c0.3-0.5,0.6-1.1,0.9-1.7c0,0.7,0.1,1.3,0.1,1.8c0,0.5,0.1,1,0.2,1.4l1.3,6.6h-7.8L374.6,362.3z M415.8,353.7
	c-1.2-1-2.4-1.7-3.8-2.2c-1.4-0.5-2.9-0.7-4.5-0.7c-2.1,0-4.1,0.3-6.1,1.1c-1.9,0.7-3.8,1.8-5.5,3.2c-1.7,1.4-3.2,3-4.3,4.9
	c-1.2,1.9-2,3.9-2.5,6c-0.5,2.1-0.6,4.1-0.3,5.9c0.3,1.9,0.9,3.5,1.9,4.8c1.1,1.4,2.4,2.5,4,3.2c1.7,0.7,3.6,1.1,5.7,1.1
	c1.7,0,3.3-0.3,4.8-0.7c1.6-0.4,3-1.1,4.5-2l1.2-5.3c-1.6,1.2-3.3,2.1-5,2.7c-1.6,0.6-3.3,0.9-4.9,0.9c-2.9,0-5-1-6.4-3
	c-1.4-2-1.7-4.6-0.9-7.7c0.8-3.2,2.3-5.8,4.8-7.8c2.4-2,5.1-3,8.2-3c1.6,0,3,0.3,4.3,0.9c1.3,0.6,2.4,1.4,3.5,2.5L415.8,353.7z
	 M430.5,380.1l1-4.2h-11.1l2.2-9.3h11.1l1-4.1h-11.1l1.7-7.2h11.1l1-3.9h-15.6l-6.9,28.7H430.5z"/>
<path class="st1" d="M331.9,326.4h-31.3l43.5-157.1h31.3L331.9,326.4z M315.6,174.3c-2.2-3-5.5-4.5-10.1-4.5H133.6l-8.5,30.7h31.3v0
	h125.1l-9.1,32.9H147.3v-0.1H116L90.1,327h31.3l17.5-62.9h140.7c4.4,0,8.5-1.5,12.4-4.5c3.9-3,6.4-6.7,7.7-11.1l17.4-62.9
	C318.2,181,317.8,177.3,315.6,174.3 M112.7,169.7H81.4L46.2,296.3H-79l35.1-126.6h-31.3l-39.4,141.7c-1.2,4.4-0.8,8.1,1.4,11.1
	c2.1,3,5.4,4.5,9.8,4.5H58c6.4,0,12.1-4.3,13.8-10.6L112.7,169.7z"/>
<polygon class="st2" points="429.4,169.6 469,248.3 385.7,327.1 "/>
<polygon class="st3" points="401.7,169.6 441.2,248.3 357.9,327.1 "/>
</svg>
