<svg version="1.1" id="Layer_1" xmlns="http://www.w3.org/2000/svg" xmlns:xlink="http://www.w3.org/1999/xlink" x="0px" y="0px"
	 width="100%" viewBox="0 0 400 400" enable-background="new 0 0 400 400" xml:space="preserve">
<path fill="#032A72" opacity="1.000000" stroke="none" 
	d="
M401.000000,201.000000 
	C401.000000,267.630188 401.000000,334.260345 401.000000,400.945251 
	C267.776154,400.945251 134.552277,400.945251 1.000000,400.945251 
	C1.000000,334.646149 1.000000,268.291718 1.468261,201.489899 
	C16.574234,200.985382 31.211946,200.928253 45.931141,201.342224 
	C46.334766,207.294189 46.403088,212.803986 47.024059,218.250809 
	C49.403675,239.123337 55.438595,258.839355 66.181473,277.265076 
	C66.431183,277.754364 66.673180,277.984253 66.947693,278.483948 
	C67.313408,279.172699 67.646599,279.591675 67.991226,280.321960 
	C68.600967,281.446503 69.199272,282.259766 69.869705,283.357788 
	C70.304520,284.091736 70.667206,284.540924 71.049286,285.268799 
	C71.351463,285.769165 71.634247,285.990814 71.961143,286.483398 
	C72.341171,287.169281 72.677094,287.584259 73.031982,288.271149 
	C73.322655,288.758789 73.594368,288.974457 73.893814,289.141357 
	C73.921547,289.092590 73.821045,289.142517 73.899887,289.478577 
	C76.662811,293.189423 79.346893,296.564209 82.014069,299.963684 
	C81.997154,299.988373 82.056076,299.977997 82.082809,300.241577 
	C82.392723,300.695648 82.675919,300.886078 82.979172,301.046265 
	C82.999237,301.015991 82.932739,301.045258 83.000748,301.331299 
	C83.753532,302.297943 84.438309,302.978607 85.325211,303.962769 
	C85.719307,304.415558 85.911255,304.564789 86.194305,304.971985 
	C89.788628,308.645844 93.291824,312.061707 96.914948,315.688538 
	C97.271149,316.133606 97.550835,316.290131 97.992157,316.644714 
	C99.059067,317.635376 100.007759,318.350342 100.971870,319.032959 
	C100.987282,319.000580 100.927719,319.040527 101.009048,319.289551 
	C101.392982,319.677765 101.695572,319.816956 102.115295,320.193359 
	C102.684219,320.682495 103.136024,320.934448 103.745407,321.491394 
	C107.271324,324.192017 110.639664,326.587646 114.005157,328.992981 
	C114.002312,329.002686 114.019936,328.989227 114.189789,329.269684 
	C115.873611,330.410919 117.387589,331.271698 118.919739,332.079956 
	C118.937927,332.027435 118.858612,332.105316 118.961639,332.339508 
	C119.373711,332.675262 119.682755,332.776825 120.100082,333.020325 
	C120.208366,333.162262 120.564301,333.190643 120.714104,333.449402 
	C121.238976,333.811371 121.614037,333.914612 121.994003,334.008301 
	C121.998909,333.998779 121.982124,334.014801 122.149445,334.271790 
	C123.214081,334.973236 124.111397,335.417725 125.276047,336.087341 
	C157.417725,353.934021 191.410614,359.828125 227.237808,353.733704 
	C254.445709,349.105469 278.937286,338.104797 300.304688,319.865723 
	C305.241058,315.260803 309.849457,310.728394 314.748627,306.038239 
	C315.425079,305.353455 315.810791,304.826447 316.454559,304.208679 
	C317.500488,303.096375 318.288330,302.074860 319.040955,301.034882 
	C319.005737,301.016418 319.047791,301.083954 319.303040,301.004761 
	C319.693115,300.612579 319.827911,300.299591 319.984222,299.991211 
	C320.005707,299.995789 319.979523,299.960358 320.278717,299.815063 
	C322.183380,297.484039 323.788849,295.298279 325.590485,293.023865 
	C325.997467,292.710449 326.085205,292.445007 326.327942,291.987183 
	C327.131531,290.938507 327.656982,290.041473 328.126648,289.114258 
	C328.070831,289.084045 328.143158,289.188263 328.394287,289.086792 
	C328.755920,288.654114 328.866425,288.322937 328.990845,287.994019 
	C329.004761,287.996277 328.986023,287.974030 329.268005,287.803467 
	C330.420624,286.113678 331.291260,284.594482 332.441284,282.884094 
	C348.185303,257.613586 355.714447,230.261871 356.607971,200.908951 
	C371.711060,200.959534 386.355530,200.979767 401.000000,201.000000 
z"/>
<path fill="#00B8F6" opacity="1.000000" stroke="none" 
	d="
M1.000000,200.000000 
	C1.000000,133.703033 1.000000,67.406075 1.000000,1.054556 
	C134.223831,1.054556 267.447693,1.054556 401.000000,1.054556 
	C401.000000,67.020531 401.000000,133.041611 400.531342,199.531754 
	C387.619659,199.992462 375.176147,199.922974 362.733887,200.015732 
	C359.325500,200.041138 358.064514,198.684113 357.895477,195.296478 
	C357.664795,190.673218 356.735992,186.088348 356.395905,181.465729 
	C356.181000,178.544998 357.148865,175.416306 356.441223,172.676636 
	C354.684570,165.875793 352.087036,159.296936 350.163269,152.533340 
	C347.000336,141.413162 342.680573,130.856033 336.134094,121.271660 
	C334.820465,119.348488 333.757507,117.234604 332.305115,115.428932 
	C324.184631,105.332970 316.650696,94.641945 307.586060,85.468765 
	C300.681793,78.481819 291.822479,73.417542 283.783508,67.565781 
	C280.663300,65.294479 277.567047,62.904057 274.167603,61.127071 
	C270.850311,59.393024 267.218292,58.182945 263.621643,57.077232 
	C255.462616,54.568913 247.240402,52.266174 238.770813,49.649879 
	C232.918716,47.327728 227.628448,45.090923 221.210098,45.372818 
	C208.999496,45.909119 196.735565,45.134567 184.493179,45.095848 
	C180.106628,45.081974 175.638397,45.203594 171.353195,46.024330 
	C167.015121,46.855190 162.893280,48.756721 158.609299,49.946495 
	C155.141724,50.909531 151.065704,50.670441 148.146622,52.433369 
	C139.573471,57.610992 129.787460,59.996140 121.301544,65.573975 
	C105.767632,75.784500 91.219368,86.899467 79.753426,101.646317 
	C77.803795,104.153809 76.607185,107.246773 75.063690,110.061020 
	C75.064690,110.052788 75.086990,110.076981 74.736755,110.091415 
	C69.028915,117.105637 63.088932,123.418854 59.610767,132.031998 
	C54.980968,143.496994 50.523296,154.872971 48.016266,167.000519 
	C47.501026,169.492920 45.458862,171.737457 45.213387,174.204971 
	C44.515465,181.220306 44.257336,188.288681 44.080605,195.342545 
	C43.994835,198.765778 42.597485,200.034470 39.233002,200.011200 
	C26.489250,199.923004 13.744424,199.990646 1.000000,200.000000 
z"/>
<path fill="#29B3E2" opacity="1.000000" stroke="none" 
	d="
M239.043869,49.879856 
	C247.240402,52.266174 255.462616,54.568913 263.621643,57.077232 
	C267.218292,58.182945 270.850311,59.393024 274.167603,61.127071 
	C277.567047,62.904057 280.663300,65.294479 283.783508,67.565781 
	C291.822479,73.417542 300.681793,78.481819 307.586060,85.468765 
	C316.650696,94.641945 324.184631,105.332970 332.305115,115.428932 
	C333.757507,117.234604 334.820465,119.348488 336.134094,121.271660 
	C342.680573,130.856033 347.000336,141.413162 350.163269,152.533340 
	C352.087036,159.296936 354.684570,165.875793 356.441223,172.676636 
	C357.148865,175.416306 356.181000,178.544998 356.395905,181.465729 
	C356.735992,186.088348 357.664795,190.673218 357.895477,195.296478 
	C358.064514,198.684113 359.325500,200.041138 362.733887,200.015732 
	C375.176147,199.922974 387.619659,199.992462 400.531342,200.000412 
	C401.000000,200.000000 401.000000,200.500000 401.000000,200.750000 
	C386.355530,200.979767 371.711060,200.959534 356.494568,200.499161 
	C355.053864,161.698120 342.534058,127.760155 317.239349,98.752335 
	C296.185150,74.607475 269.693787,59.224476 239.013000,50.514080 
	C239.020752,50.302555 239.043869,49.879856 239.043869,49.879856 
z"/>
<path fill="#2AB3E2" opacity="1.000000" stroke="none" 
	d="
M1.000000,200.250000 
	C13.744424,199.990646 26.489250,199.923004 39.233002,200.011200 
	C42.597485,200.034470 43.994835,198.765778 44.080605,195.342545 
	C44.257336,188.288681 44.515465,181.220306 45.213387,174.204971 
	C45.458862,171.737457 47.501026,169.492920 48.016266,167.000519 
	C50.523296,154.872971 54.980968,143.496994 59.610767,132.031998 
	C63.088932,123.418854 69.028915,117.105637 74.695450,110.437897 
	C69.017647,121.844559 62.305832,132.597122 57.211224,144.067978 
	C49.231377,162.035126 46.637749,181.332687 45.849659,200.871124 
	C31.211946,200.928253 16.574234,200.985382 1.468261,201.021240 
	C1.000000,201.000000 1.000000,200.500000 1.000000,200.250000 
z"/>
<path fill="#FDFEFE" opacity="1.000000" stroke="none" 
	d="
M45.931141,201.342224 
	C46.637749,181.332687 49.231377,162.035126 57.211224,144.067978 
	C62.305832,132.597122 69.017647,121.844559 75.045685,110.423462 
	C75.086990,110.076981 75.064690,110.052788 75.365005,109.914337 
	C76.496407,108.737373 77.332764,107.703041 78.157822,106.659760 
	C103.270081,74.905670 135.659195,55.317726 175.597855,48.308517 
	C196.914429,44.567474 218.020508,45.959293 239.005264,50.725605 
	C269.693787,59.224476 296.185150,74.607475 317.239349,98.752335 
	C342.534058,127.760155 355.053864,161.698120 356.035950,200.468811 
	C355.714447,230.261871 348.185303,257.613586 332.075317,282.929993 
	C330.615326,284.769440 329.800690,286.371735 328.986023,287.974030 
	C328.986023,287.974030 329.004761,287.996277 328.789124,288.145477 
	C328.430054,288.592529 328.286621,288.890411 328.143158,289.188263 
	C328.143158,289.188263 328.070831,289.084045 327.817596,289.116821 
	C327.059509,290.145996 326.554657,291.142456 326.049835,292.138885 
	C326.085205,292.445007 325.997467,292.710449 325.191833,293.008545 
	C320.101440,293.390076 320.727936,297.136688 319.979523,299.960358 
	C319.979523,299.960358 320.005707,299.995789 319.774353,300.121338 
	C319.279694,300.467743 319.114594,300.746765 319.047791,301.083954 
	C319.047791,301.083954 319.005737,301.016418 318.690155,301.032166 
	C317.648560,302.131744 316.922516,303.215576 316.196472,304.299438 
	C315.810791,304.826447 315.425079,305.353455 314.371857,305.988312 
	C309.639526,304.939087 307.218872,306.330505 305.998688,310.488800 
	C305.494263,312.207886 303.900452,313.593597 302.872284,315.176544 
	C301.860870,316.733734 300.938324,318.348663 299.976776,319.938263 
	C278.937286,338.104797 254.445709,349.105469 227.237808,353.733704 
	C191.410614,359.828125 157.417725,353.934021 125.189049,335.769470 
	C123.883842,334.822601 122.932983,334.418701 121.982117,334.014801 
	C121.982124,334.014801 121.998909,333.998779 121.804291,333.795654 
	C121.261215,333.458588 120.912758,333.324615 120.564301,333.190643 
	C120.564301,333.190643 120.208366,333.162262 119.963531,332.822968 
	C119.484314,332.238647 119.197617,332.112549 118.858612,332.105316 
	C118.858612,332.105316 118.937927,332.027435 118.880157,331.715515 
	C117.221565,330.598816 115.620750,329.794006 114.019936,328.989227 
	C114.019936,328.989227 114.002312,329.002686 113.947411,328.653412 
	C111.289673,324.726959 109.146729,320.483948 103.587830,321.186432 
	C103.136024,320.934448 102.684219,320.682495 101.991493,319.983124 
	C101.535294,319.272583 101.261009,319.107513 100.927719,319.040527 
	C100.927719,319.040527 100.987282,319.000580 100.971710,318.694733 
	C100.606979,316.680603 100.325905,314.868469 97.873932,316.369080 
	C97.550835,316.290131 97.271149,316.133606 96.924278,315.304504 
	C94.475571,307.481934 91.593353,304.792114 86.103195,304.713989 
	C85.911255,304.564789 85.719307,304.415558 85.472603,303.618896 
	C84.589485,302.329376 83.761108,301.687317 82.932739,301.045258 
	C82.932739,301.045258 82.999237,301.015991 82.894623,300.815247 
	C82.612289,300.325165 82.367645,300.113007 82.056076,299.977997 
	C82.056076,299.977997 81.997154,299.988373 82.008133,299.588318 
	C81.038940,294.409515 78.932350,290.549988 73.821045,289.142517 
	C73.821045,289.142517 73.921547,289.092590 73.823158,288.898224 
	C73.487518,288.468964 73.250259,288.234100 73.013016,287.999207 
	C72.677094,287.584259 72.341171,287.169281 71.886658,286.233429 
	C71.522011,285.471710 71.275948,285.230896 71.029892,284.990082 
	C70.667206,284.540924 70.304520,284.091736 70.095779,283.161499 
	C69.493073,281.790497 68.736420,280.900574 67.979782,280.010651 
	C67.646599,279.591675 67.313408,279.172699 66.907570,278.239014 
	C66.700951,277.405243 66.480560,277.165680 66.173752,277.005615 
	C55.438595,258.839355 49.403675,239.123337 47.024059,218.250809 
	C46.403088,212.803986 46.334766,207.294189 45.931141,201.342224 
M162.107864,179.863037 
	C162.107864,179.863037 162.215210,179.828613 161.844635,179.315979 
	C161.235840,179.217316 160.627029,179.118652 159.644699,178.746841 
	C159.345947,178.578796 159.049744,178.583191 158.252335,178.285461 
	C157.472733,178.515625 156.693130,178.745804 154.990677,178.988541 
	C149.991226,178.982849 144.991760,178.977158 139.863251,178.438187 
	C138.655106,179.350754 136.482590,180.198227 136.415787,181.187836 
	C136.196976,184.429672 136.743912,187.723190 136.435120,191.124527 
	C136.085342,191.666061 135.735565,192.207596 135.385803,192.749130 
	C135.658310,192.882950 135.930817,193.016769 136.203339,193.150589 
	C136.470001,192.434921 136.736679,191.719254 137.765350,190.977722 
	C138.272339,190.943588 138.779343,190.909454 139.866837,190.892044 
	C140.242050,190.984955 140.617264,191.077881 141.111984,191.783676 
	C142.415390,191.933136 143.729980,192.018829 145.019943,192.244934 
	C147.992569,192.766022 152.813156,189.331818 152.144745,196.101944 
	C149.580048,196.137955 147.015350,196.173965 143.949600,195.963074 
	C143.297394,196.262619 142.645187,196.562164 141.529709,197.067123 
	C141.360840,197.071274 141.191986,197.075424 140.736771,196.556686 
	C137.057861,196.843781 133.927124,195.662064 131.249802,193.129807 
	C130.964996,192.860443 130.298965,192.994110 129.560562,192.145493 
	C129.471313,190.760452 129.382065,189.375397 129.493942,187.756775 
	C129.582535,187.422195 129.468994,187.170349 128.911392,186.542480 
	C128.876450,186.202606 128.841507,185.862717 128.887146,184.720749 
	C127.692604,178.920135 124.942513,176.755280 120.091759,178.299438 
	C119.059944,178.134918 118.028137,177.970413 116.294098,177.376587 
	C109.197922,177.533142 102.101753,177.689713 94.603180,178.039932 
	C94.603180,178.039932 94.157265,178.064209 93.657089,178.377716 
	C93.491150,178.726654 93.325211,179.075607 93.189590,180.308105 
	C93.224525,196.437576 93.238129,212.567139 93.324425,228.696335 
	C93.333984,230.483704 93.758369,232.268875 94.015289,234.752823 
	C94.800903,235.283844 95.664268,236.353958 96.358849,236.253784 
	C99.585724,235.788376 102.765831,234.998779 106.423912,233.931396 
	C106.688416,233.625870 106.952919,233.320343 107.857956,232.827408 
	C108.832504,231.401932 110.823616,228.890320 110.631950,228.710922 
	C106.543289,224.884247 111.133064,221.500198 111.848602,217.763641 
	C113.887886,217.806274 115.927177,217.848923 118.371788,218.346954 
	C119.251625,217.950089 120.131462,217.553207 121.543961,216.842896 
	C122.298241,216.535080 123.052521,216.227264 124.294991,215.759811 
	C124.532913,215.518661 124.770836,215.277496 125.260117,214.507080 
	C125.845665,214.006287 126.431213,213.505493 127.440163,212.680557 
	C127.590149,212.364273 127.740135,212.047974 127.927322,211.307755 
	C127.927322,211.307755 128.214600,210.993790 128.579483,210.658585 
	C128.794510,210.388184 128.898376,210.080276 128.865982,209.335144 
	C128.865982,209.335144 129.094986,209.006561 129.863693,209.068619 
	C130.568649,210.310165 131.510254,211.479187 131.918518,212.811646 
	C132.425934,214.467667 132.492493,216.258774 132.892838,218.655518 
	C132.853546,219.104507 132.814255,219.553482 132.555450,220.217514 
	C132.429657,220.538422 132.514420,220.799179 132.946274,221.761215 
	C132.985062,222.790161 133.023849,223.819122 132.971863,225.551407 
	C132.640732,230.724136 134.304123,232.607742 140.111740,232.954071 
	C141.741745,233.364487 143.371735,233.774902 145.700989,234.618103 
	C151.489380,234.946045 157.275482,235.359344 163.068497,235.515915 
	C164.008652,235.541321 164.979553,234.428513 166.331787,233.191406 
	C167.383728,231.018112 169.299408,228.862503 169.344299,226.668594 
	C169.593918,214.475021 169.389404,202.272186 169.654160,189.705505 
	C169.464996,189.124908 169.275833,188.544312 168.907806,187.906769 
	C168.907806,187.906769 168.837662,188.080856 168.914261,187.538986 
	C168.866302,187.178650 168.818344,186.818329 169.176193,185.879211 
	C169.355789,184.558243 170.107880,182.915955 169.587067,181.988129 
	C168.702744,180.412643 167.106552,178.838150 164.574478,180.903442 
	C164.574478,180.903442 164.082733,180.861084 164.062195,180.942581 
	C164.062195,180.942581 164.139297,180.909149 163.846649,180.353271 
	C163.261368,180.152710 162.676102,179.952164 162.107864,179.863037 
M184.558502,215.549271 
	C184.738113,215.530014 184.917709,215.510757 185.403473,215.756256 
	C185.403473,215.756256 185.798584,215.668411 186.546158,215.935593 
	C188.693298,216.015488 190.840454,216.095383 192.992508,216.940872 
	C192.996323,217.961731 193.000122,218.982590 192.182968,220.230484 
	C190.781693,220.371017 189.380402,220.511566 187.290192,220.389145 
	C186.562286,220.295013 185.834366,220.200897 184.665375,219.593918 
	C183.092926,219.644211 181.520462,219.694489 179.557495,220.131485 
	C179.382370,220.447403 179.207245,220.763321 178.931229,221.530228 
	C178.931229,221.530228 178.729675,221.946060 178.256790,222.037750 
	C178.367172,223.024521 178.477554,224.011307 178.723572,225.905609 
	C178.730453,226.735367 178.848022,227.581818 178.725830,228.392105 
	C178.049591,232.876266 179.679642,234.720444 184.418762,234.265152 
	C188.694824,233.854340 193.041977,234.238617 197.354904,234.142761 
	C203.001862,234.017288 207.148727,231.527145 209.216187,226.162018 
	C209.216187,226.162018 209.256256,226.266693 209.754303,225.828827 
	C210.022293,224.547913 210.290268,223.266983 210.806549,221.215363 
	C210.764969,220.140793 210.723404,219.066208 210.862900,217.199600 
	C210.769638,216.127701 210.676392,215.055801 210.770599,213.066132 
	C210.701859,206.383484 210.633133,199.700836 210.773148,192.351624 
	C210.697021,191.898727 210.620895,191.445816 210.730881,190.152252 
	C210.680176,188.438263 210.629456,186.724289 210.766693,184.347519 
	C210.526016,183.541962 210.285339,182.736404 210.003632,181.983459 
	C210.003632,181.983459 210.069809,181.975021 210.189163,181.262558 
	C209.531708,180.150757 209.118912,178.497681 208.155731,178.062332 
	C206.914185,177.501160 205.231949,177.910004 203.739502,177.909805 
	C196.867050,177.908829 196.871857,177.909912 196.878326,184.988892 
	C196.883179,190.295654 196.873642,195.602417 196.435654,201.102219 
	C196.162308,201.293716 195.988464,201.552155 195.030472,201.921265 
	C188.351028,202.054840 188.345276,202.054855 188.336105,195.607834 
	C188.327927,189.852051 188.334381,184.096252 188.334381,178.141083 
	C183.450287,178.141083 179.346878,178.141083 174.689133,178.141083 
	C174.689133,182.594986 174.689133,186.814713 174.433823,191.661316 
	C174.515274,192.096527 174.596725,192.531754 174.391815,193.867081 
	C174.073441,199.024033 173.124100,204.245697 175.983231,209.012039 
	C175.983231,209.012039 175.915497,209.043488 176.014984,209.663025 
	C176.337692,210.153641 176.660385,210.644257 177.021088,211.821091 
	C177.962784,212.597427 178.904480,213.373764 180.107788,214.724228 
	C181.412613,214.973267 182.717422,215.222290 184.558502,215.549271 
M303.393372,234.190765 
	C307.692688,234.726639 309.223572,232.976242 309.125702,228.544037 
	C308.861206,216.565567 309.069031,204.577301 309.026520,192.593140 
	C308.983276,180.406097 297.840912,173.731583 287.078003,179.212524 
	C285.550018,179.990646 283.049774,180.080353 281.505676,179.377213 
	C276.860931,177.262146 272.391296,176.431503 267.594879,178.702026 
	C266.640747,179.153702 265.408478,179.342819 264.360840,179.209656 
	C261.511993,178.847565 258.696564,178.229004 255.861984,177.746719 
	C251.640717,177.028503 250.330368,179.056442 250.376770,183.051086 
	C250.544998,197.529907 250.459229,212.011536 250.595734,226.490921 
	C250.669754,234.341629 250.790024,234.127655 258.660400,234.311783 
	C263.023010,234.413864 264.500458,232.927475 264.397766,228.556015 
	C264.159332,218.408768 264.345398,208.251282 264.379425,198.098022 
	C264.390137,194.902283 264.077271,191.155350 268.755768,191.309296 
	C272.873108,191.444778 272.894287,194.753204 272.876648,197.926941 
	C272.817535,208.579330 272.941010,219.233276 272.812836,229.884430 
	C272.773773,233.128571 273.976776,234.491318 277.189636,234.241791 
	C278.678345,234.126175 280.196442,234.107910 281.679688,234.258041 
	C285.544769,234.649231 286.994843,233.089401 286.911407,229.131073 
	C286.704437,219.315033 286.736450,209.489517 286.916687,199.672272 
	C286.977081,196.381683 285.173523,191.288666 291.033508,191.357986 
	C296.434418,191.421875 294.862122,196.217316 294.913971,199.425552 
	C295.061920,208.578094 294.972443,217.734207 295.021149,226.888672 
	C295.059631,234.126465 295.089020,234.126312 303.393372,234.190765 
M244.005905,178.260330 
	C242.094666,177.960693 240.183426,177.661057 238.226944,177.354309 
	C238.095154,175.838104 238.123688,174.658234 237.867661,173.543732 
	C237.378098,171.412430 236.726593,169.318329 236.142303,167.208786 
	C234.188660,168.549988 232.254272,169.920334 230.277100,171.225937 
	C226.930756,173.435684 223.808395,176.457565 220.122284,177.542328 
	C216.674271,178.557007 216.047760,180.031281 216.042114,183.039413 
	C216.027969,190.584671 215.947739,190.584518 224.036026,192.873169 
	C224.036026,204.658279 224.214447,216.618011 223.948486,228.567856 
	C223.841614,233.369431 225.478531,235.397202 230.257263,234.755783 
	C230.911026,234.668015 231.596512,234.681961 232.252350,234.765793 
	C236.570023,235.317734 238.225327,233.496307 238.115494,229.119034 
	C237.877441,219.632980 237.990692,210.138062 237.964447,200.646759 
	C237.956802,197.879578 237.963257,195.112350 237.963257,192.493591 
	C245.563339,191.166779 245.612595,191.165512 245.432343,184.195541 
	C245.385803,182.396317 244.923889,180.607803 244.005905,178.260330 
M91.506882,177.464035 
	C91.506882,177.464035 91.529465,177.516190 91.506882,177.464035 
z"/>
<path fill="#E5F1F5" opacity="1.000000" stroke="none" 
	d="
M300.304688,319.865723 
	C300.938324,318.348663 301.860870,316.733734 302.872284,315.176544 
	C303.900452,313.593597 305.494263,312.207886 305.998688,310.488800 
	C307.218872,306.330505 309.639526,304.939087 314.081116,306.146088 
	C309.849457,310.728394 305.241058,315.260803 300.304688,319.865723 
z"/>
<path fill="#E4F0F6" opacity="1.000000" stroke="none" 
	d="
M86.194305,304.971985 
	C91.593353,304.792114 94.475571,307.481934 96.804352,315.093536 
	C93.291824,312.061707 89.788628,308.645844 86.194305,304.971985 
z"/>
<path fill="#E4F0F6" opacity="1.000000" stroke="none" 
	d="
M73.899887,289.478577 
	C78.932350,290.549988 81.038940,294.409515 82.025040,299.563660 
	C79.346893,296.564209 76.662811,293.189423 73.899887,289.478577 
z"/>
<path fill="#E4F0F6" opacity="1.000000" stroke="none" 
	d="
M103.745407,321.491394 
	C109.146729,320.483948 111.289673,324.726959 113.950256,328.643738 
	C110.639664,326.587646 107.271324,324.192017 103.745407,321.491394 
z"/>
<path fill="#E5F1F5" opacity="1.000000" stroke="none" 
	d="
M320.278717,299.815063 
	C320.727936,297.136688 320.101440,293.390076 324.995667,293.097168 
	C323.788849,295.298279 322.183380,297.484039 320.278717,299.815063 
z"/>
<path fill="#E4F0F6" opacity="1.000000" stroke="none" 
	d="
M114.189789,329.269684 
	C115.620750,329.794006 117.221565,330.598816 118.861969,331.768036 
	C117.387589,331.271698 115.873611,330.410919 114.189789,329.269684 
z"/>
<path fill="#E5F1F5" opacity="1.000000" stroke="none" 
	d="
M329.268005,287.803467 
	C329.800690,286.371735 330.615326,284.769440 331.795959,283.121216 
	C331.291260,284.594482 330.420624,286.113678 329.268005,287.803467 
z"/>
<path fill="#E5F1F5" opacity="1.000000" stroke="none" 
	d="
M316.454529,304.208679 
	C316.922516,303.215576 317.648560,302.131744 318.725403,301.050629 
	C318.288330,302.074860 317.500488,303.096375 316.454529,304.208679 
z"/>
<path fill="#E4F0F6" opacity="1.000000" stroke="none" 
	d="
M97.992157,316.644714 
	C100.325905,314.868469 100.606979,316.680603 100.956299,318.727112 
	C100.007759,318.350342 99.059067,317.635376 97.992157,316.644714 
z"/>
<path fill="#E4F0F6" opacity="1.000000" stroke="none" 
	d="
M67.991219,280.321960 
	C68.736420,280.900574 69.493073,281.790497 70.023643,282.876709 
	C69.199272,282.259766 68.600967,281.446503 67.991219,280.321960 
z"/>
<path fill="#E5F1F5" opacity="1.000000" stroke="none" 
	d="
M326.327942,291.987183 
	C326.554657,291.142456 327.059509,290.145996 327.873413,289.147003 
	C327.656982,290.041473 327.131531,290.938507 326.327942,291.987183 
z"/>
<path fill="#E4F0F6" opacity="1.000000" stroke="none" 
	d="
M83.000748,301.331299 
	C83.761108,301.687317 84.589485,302.329376 85.270462,303.315338 
	C84.438309,302.978607 83.753532,302.297943 83.000748,301.331299 
z"/>
<path fill="#E4F0F6" opacity="1.000000" stroke="none" 
	d="
M122.149445,334.271790 
	C122.932983,334.418701 123.883842,334.822601 124.921707,335.544373 
	C124.111397,335.417725 123.214081,334.973236 122.149445,334.271790 
z"/>
<path fill="#E4F0F6" opacity="1.000000" stroke="none" 
	d="
M101.009048,319.289551 
	C101.261009,319.107513 101.535294,319.272583 101.874359,319.745911 
	C101.695572,319.816956 101.392982,319.677765 101.009048,319.289551 
z"/>
<path fill="#E4F0F6" opacity="1.000000" stroke="none" 
	d="
M118.961639,332.339508 
	C119.197617,332.112549 119.484314,332.238647 119.855240,332.681030 
	C119.682755,332.776825 119.373711,332.675262 118.961639,332.339508 
z"/>
<path fill="#E4F0F6" opacity="1.000000" stroke="none" 
	d="
M120.714104,333.449402 
	C120.912758,333.324615 121.261215,333.458588 121.799393,333.805176 
	C121.614037,333.914612 121.238976,333.811371 120.714104,333.449402 
z"/>
<path fill="#E5F1F5" opacity="1.000000" stroke="none" 
	d="
M319.303040,301.004761 
	C319.114594,300.746765 319.279694,300.467743 319.752869,300.116730 
	C319.827911,300.299591 319.693115,300.612579 319.303040,301.004761 
z"/>
<path fill="#E4F0F6" opacity="1.000000" stroke="none" 
	d="
M82.082809,300.241577 
	C82.367645,300.113007 82.612289,300.325165 82.874557,300.845520 
	C82.675919,300.886078 82.392723,300.695648 82.082809,300.241577 
z"/>
<path fill="#E5F1F5" opacity="1.000000" stroke="none" 
	d="
M328.394287,289.086792 
	C328.286621,288.890411 328.430054,288.592529 328.775238,288.143188 
	C328.866425,288.322937 328.755920,288.654114 328.394287,289.086792 
z"/>
<path fill="#E4F0F6" opacity="1.000000" stroke="none" 
	d="
M73.031975,288.271149 
	C73.250259,288.234100 73.487518,288.468964 73.795425,288.947021 
	C73.594368,288.974457 73.322655,288.758789 73.031975,288.271149 
z"/>
<path fill="#E4F0F6" opacity="1.000000" stroke="none" 
	d="
M71.049286,285.268799 
	C71.275948,285.230896 71.522011,285.471710 71.842560,285.962463 
	C71.634247,285.990814 71.351463,285.769165 71.049286,285.268799 
z"/>
<path fill="#E4F0F6" opacity="1.000000" stroke="none" 
	d="
M66.181473,277.265076 
	C66.480560,277.165680 66.700951,277.405243 66.875046,277.969208 
	C66.673180,277.984253 66.431183,277.754364 66.181473,277.265076 
z"/>
<path fill="#2AB3E2" opacity="1.000000" stroke="none" 
	d="
M239.013000,50.514080 
	C218.020508,45.959293 196.914429,44.567474 175.597855,48.308517 
	C135.659195,55.317726 103.270081,74.905670 78.157822,106.659760 
	C77.332764,107.703041 76.496407,108.737373 75.363998,109.922569 
	C76.607185,107.246773 77.803795,104.153809 79.753426,101.646317 
	C91.219368,86.899467 105.767632,75.784500 121.301544,65.573975 
	C129.787460,59.996140 139.573471,57.610992 148.146622,52.433369 
	C151.065704,50.670441 155.141724,50.909531 158.609299,49.946495 
	C162.893280,48.756721 167.015121,46.855190 171.353195,46.024330 
	C175.638397,45.203594 180.106628,45.081974 184.493179,45.095848 
	C196.735565,45.134567 208.999496,45.909119 221.210098,45.372818 
	C227.628448,45.090923 232.918716,47.327728 238.770813,49.649879 
	C239.043869,49.879856 239.020752,50.302555 239.013000,50.514080 
z"/>
<path fill="#0EB6EE" opacity="1.000000" stroke="none" 
	d="
M302.926849,234.192505 
	C295.089020,234.126312 295.059631,234.126465 295.021149,226.888672 
	C294.972443,217.734207 295.061920,208.578094 294.913971,199.425552 
	C294.862122,196.217316 296.434418,191.421875 291.033508,191.357986 
	C285.173523,191.288666 286.977081,196.381683 286.916687,199.672272 
	C286.736450,209.489517 286.704437,219.315033 286.911407,229.131073 
	C286.994843,233.089401 285.544769,234.649231 281.679688,234.258041 
	C280.196442,234.107910 278.678345,234.126175 277.189636,234.241791 
	C273.976776,234.491318 272.773773,233.128571 272.812836,229.884430 
	C272.941010,219.233276 272.817535,208.579330 272.876648,197.926941 
	C272.894287,194.753204 272.873108,191.444778 268.755768,191.309296 
	C264.077271,191.155350 264.390137,194.902283 264.379425,198.098022 
	C264.345398,208.251282 264.159332,218.408768 264.397766,228.556015 
	C264.500458,232.927475 263.023010,234.413864 258.660400,234.311783 
	C250.790024,234.127655 250.669754,234.341629 250.595734,226.490921 
	C250.459229,212.011536 250.544998,197.529907 250.376770,183.051086 
	C250.330368,179.056442 251.640717,177.028503 255.861984,177.746719 
	C258.696564,178.229004 261.511993,178.847565 264.360840,179.209656 
	C265.408478,179.342819 266.640747,179.153702 267.594879,178.702026 
	C272.391296,176.431503 276.860931,177.262146 281.505676,179.377213 
	C283.049774,180.080353 285.550018,179.990646 287.078003,179.212524 
	C297.840912,173.731583 308.983276,180.406097 309.026520,192.593140 
	C309.069031,204.577301 308.861206,216.565567 309.125702,228.544037 
	C309.223572,232.976242 307.692688,234.726639 302.926849,234.192505 
z"/>
<path fill="#0A2E71" opacity="1.000000" stroke="none" 
	d="
M127.016754,213.004715 
	C126.431213,213.505493 125.845665,214.006287 124.865959,214.812134 
	C124.250137,215.384598 124.028473,215.652023 123.806808,215.919449 
	C123.052521,216.227264 122.298241,216.535080 120.956161,216.965302 
	C119.567726,217.355652 118.767097,217.623611 117.966461,217.891571 
	C115.927177,217.848923 113.887886,217.806274 110.992577,217.752258 
	C109.138916,218.750381 107.366882,219.698807 107.281563,220.780289 
	C106.961662,224.834915 107.192818,228.933029 107.217415,233.014832 
	C106.952919,233.320343 106.688416,233.625870 105.737442,234.079681 
	C101.364098,234.170334 97.677231,234.112701 93.990364,234.055054 
	C93.758369,232.268875 93.333984,230.483704 93.324425,228.696335 
	C93.238129,212.567139 93.224525,196.437576 93.426529,179.715698 
	C93.828064,178.770264 93.992661,178.417236 94.157257,178.064209 
	C94.157265,178.064209 94.603180,178.039932 95.269516,177.999893 
	C102.956009,177.908539 109.976166,177.857224 116.996323,177.805908 
	C118.028137,177.970413 119.059944,178.134918 120.730377,178.567734 
	C123.848190,181.064972 126.327377,183.293900 128.806564,185.522842 
	C128.841507,185.862717 128.876450,186.202606 128.994995,187.029327 
	C129.150009,187.674240 129.221420,187.832306 129.292816,187.990356 
	C129.382065,189.375397 129.471313,190.760452 129.526031,192.989685 
	C129.359314,198.891449 129.227142,203.949005 129.094986,209.006561 
	C129.094986,209.006561 128.865982,209.335144 128.659683,209.674103 
	C128.373795,210.339966 128.294205,210.666885 128.214600,210.993790 
	C128.214600,210.993790 127.927322,211.307755 127.664352,211.648499 
	C127.273178,212.327728 127.144966,212.666229 127.016754,213.004715 
M107.119713,204.449570 
	C108.262245,205.176071 109.485580,206.627762 110.534157,206.510941 
	C117.158562,205.772873 119.273880,199.957047 115.028503,192.602509 
	C112.402023,191.938339 109.775551,191.274185 107.161888,190.613266 
	C107.161888,195.854950 107.161888,199.761978 107.119713,204.449570 
z"/>
<path fill="#062C71" opacity="1.000000" stroke="none" 
	d="
M141.023117,197.079559 
	C141.191986,197.075424 141.360840,197.071274 142.090225,197.006241 
	C143.250717,196.700241 143.850677,196.455109 144.450653,196.209991 
	C147.015350,196.173965 149.580048,196.137955 152.981537,196.044800 
	C155.910446,192.262955 155.555176,191.188049 151.911285,191.061234 
	C148.277359,190.934769 144.632538,191.121414 140.992493,191.170776 
	C140.617264,191.077881 140.242050,190.984955 139.422852,190.467987 
	C139.316666,186.353119 139.654480,182.662308 139.992310,178.971466 
	C144.991760,178.977158 149.991226,178.982849 155.927017,178.973389 
	C157.494278,178.892151 158.125183,178.826080 158.756104,178.759995 
	C159.049744,178.583191 159.345947,178.578796 160.049957,179.097977 
	C161.041885,179.575607 161.628540,179.702103 162.215210,179.828613 
	C162.215210,179.828613 162.107864,179.863037 162.265488,180.074509 
	C162.995163,180.493698 163.567230,180.701431 164.139297,180.909149 
	C164.139297,180.909149 164.062195,180.942581 164.056427,181.271332 
	C165.359360,183.066101 166.668060,184.532104 168.159698,186.139786 
	C168.342621,186.281464 168.770386,186.457993 168.770386,186.457993 
	C168.818344,186.818329 168.866302,187.178650 168.651611,188.148590 
	C168.259369,190.570297 168.024155,192.382004 168.017685,194.194534 
	C167.980881,204.502960 168.220123,214.820023 167.827255,225.113602 
	C167.739578,227.410507 165.346222,231.642792 164.269318,231.562546 
	C154.539490,230.837708 143.366211,236.400162 135.637375,225.788177 
	C135.317368,225.348831 134.447510,225.309952 133.638229,225.034546 
	C133.442627,224.984589 133.062637,224.848068 133.062637,224.848068 
	C133.023849,223.819122 132.985062,222.790161 132.944382,221.128555 
	C132.886658,220.331436 132.830811,220.166962 132.774963,220.002472 
	C132.814255,219.553482 132.853546,219.104507 132.909332,217.871216 
	C132.554504,209.175156 132.457169,201.374283 141.023117,197.079559 
M146.418655,211.645920 
	C146.562576,214.429001 146.706512,217.212082 147.053101,220.385834 
	C147.053101,220.385834 147.063354,220.825836 147.053833,221.510010 
	C149.217499,224.694504 151.561768,224.355865 154.511948,221.326813 
	C154.334015,217.236343 154.156082,213.145859 153.489685,208.572586 
	C151.997025,208.698792 150.504364,208.825012 148.487640,209.256653 
	C147.941299,209.838165 147.394974,210.419693 146.418655,211.645920 
z"/>
<path fill="#092D71" opacity="1.000000" stroke="none" 
	d="
M174.678177,192.966965 
	C174.596725,192.531754 174.515274,192.096527 174.848633,191.138229 
	C175.507309,189.008057 175.990204,187.394379 175.945984,185.795258 
	C175.849609,182.310242 177.390060,180.088654 180.827850,180.353287 
	C183.825272,180.584045 187.469101,180.899612 187.023239,185.654556 
	C186.667526,189.448013 185.929810,193.333557 186.431595,197.033096 
	C186.748581,199.370209 188.638748,201.927689 190.556946,203.479401 
	C192.149567,204.767731 195.101196,205.629944 195.914124,201.877518 
	C195.988464,201.552155 196.162308,201.293716 196.931213,201.038193 
	C197.612885,200.989944 197.799026,201.005722 198.034760,201.104797 
	C198.084335,201.188110 198.320099,201.196625 198.320099,201.196625 
	C198.320099,201.196625 198.021362,200.985077 198.015594,200.517456 
	C198.006149,194.785538 197.876999,189.516296 198.083282,184.260239 
	C198.137741,182.872864 199.306854,180.321457 199.828781,180.355881 
	C203.263107,180.582413 206.660431,181.370255 210.069809,181.975037 
	C210.069809,181.975021 210.003632,181.983459 209.982574,182.222336 
	C210.167267,183.310913 210.373016,184.160599 210.578751,185.010300 
	C210.629456,186.724289 210.680176,188.438263 210.411713,190.640732 
	C210.249847,191.758865 210.407135,192.388535 210.564407,193.018188 
	C210.633133,199.700836 210.701859,206.383484 210.406937,213.623978 
	C210.256119,215.451767 210.468979,216.721695 210.681824,217.991638 
	C210.723404,219.066208 210.764969,220.140793 210.374603,221.753296 
	C209.713867,223.616379 209.485062,224.941528 209.256256,226.266693 
	C209.256256,226.266693 209.216187,226.162018 208.960251,226.302307 
	C203.688858,231.231522 197.995132,234.098557 190.793716,233.031311 
	C188.355072,232.669907 185.842361,232.324722 183.410019,232.528214 
	C180.446274,232.776154 179.663971,231.076553 180.105576,228.966187 
	C180.697861,226.135788 181.979034,223.449539 183.249054,220.522644 
	C183.751755,220.292374 183.969818,220.240875 184.322372,220.344635 
	C184.771469,220.566452 185.003372,220.457245 185.158524,220.143494 
	C185.164474,220.114746 185.106461,220.106766 185.106461,220.106766 
	C185.834366,220.200897 186.562286,220.295013 187.810242,220.798981 
	C189.883698,221.620453 191.515289,222.540527 192.971008,222.316727 
	C194.848404,222.028061 196.585037,220.823898 198.382309,220.014008 
	C197.465469,218.122467 197.030838,215.575470 195.533051,214.473587 
	C192.245468,212.054977 188.773376,212.984085 185.798584,215.668411 
	C185.798584,215.668411 185.403473,215.756256 185.034515,215.311920 
	C183.724655,214.621582 182.783783,214.375595 181.883881,214.087875 
	C181.924866,214.046158 181.890305,214.157898 181.860443,213.798340 
	C180.541565,212.634430 179.252533,211.830078 177.982727,211.013641 
	C178.001938,211.001541 177.974976,211.038574 177.915649,210.724792 
	C177.209396,209.955154 176.562439,209.499329 175.915497,209.043488 
	C175.915497,209.043488 175.983231,209.012039 175.985275,208.574982 
	C175.550949,203.080948 175.114563,198.023956 174.678177,192.966965 
z"/>
<path fill="#13B6EC" opacity="1.000000" stroke="none" 
	d="
M244.329346,178.537354 
	C244.923889,180.607803 245.385803,182.396317 245.432343,184.195541 
	C245.612595,191.165512 245.563339,191.166779 237.963257,192.493591 
	C237.963257,195.112350 237.956802,197.879578 237.964447,200.646759 
	C237.990692,210.138062 237.877441,219.632980 238.115494,229.119034 
	C238.225327,233.496307 236.570023,235.317734 232.252350,234.765793 
	C231.596512,234.681961 230.911026,234.668015 230.257263,234.755783 
	C225.478531,235.397202 223.841614,233.369431 223.948486,228.567856 
	C224.214447,216.618011 224.036026,204.658279 224.036026,192.873169 
	C215.947739,190.584518 216.027969,190.584671 216.042114,183.039413 
	C216.047760,180.031281 216.674271,178.557007 220.122284,177.542328 
	C223.808395,176.457565 226.930756,173.435684 230.277100,171.225937 
	C232.254272,169.920334 234.188660,168.549988 236.142303,167.208786 
	C236.726593,169.318329 237.378098,171.412430 237.867661,173.543732 
	C238.123688,174.658234 238.095154,175.838104 238.226944,177.354309 
	C240.183426,177.661057 242.094666,177.960693 244.329346,178.537354 
z"/>
<path fill="#183466" opacity="1.000000" stroke="none" 
	d="
M195.472290,201.899384 
	C195.101196,205.629944 192.149567,204.767731 190.556946,203.479401 
	C188.638748,201.927689 186.748581,199.370209 186.431595,197.033096 
	C185.929810,193.333557 186.667526,189.448013 187.023239,185.654556 
	C187.469101,180.899612 183.825272,180.584045 180.827850,180.353287 
	C177.390060,180.088654 175.849609,182.310242 175.945984,185.795258 
	C175.990204,187.394379 175.507309,189.008057 174.976288,190.824799 
	C174.689133,186.814713 174.689133,182.594986 174.689133,178.141083 
	C179.346878,178.141083 183.450287,178.141083 188.334381,178.141083 
	C188.334381,184.096252 188.327927,189.852051 188.336105,195.607834 
	C188.345276,202.054855 188.351028,202.054840 195.472290,201.899384 
z"/>
<path fill="#132E5F" opacity="1.000000" stroke="none" 
	d="
M133.833832,225.084488 
	C134.447510,225.309952 135.317368,225.348831 135.637375,225.788177 
	C143.366211,236.400162 154.539490,230.837708 164.269318,231.562546 
	C165.346222,231.642792 167.739578,227.410507 167.827255,225.113602 
	C168.220123,214.820023 167.980881,204.502960 168.017685,194.194534 
	C168.024155,192.382004 168.259369,190.570297 168.613312,188.419525 
	C168.837662,188.080856 168.907806,187.906769 168.938766,188.294846 
	C169.093246,189.146118 169.216766,189.609314 169.340302,190.072510 
	C169.389404,202.272186 169.593918,214.475021 169.344299,226.668594 
	C169.299408,228.862503 167.383728,231.018112 165.673096,233.576965 
	C158.343506,234.036774 151.672623,234.111053 145.001740,234.185318 
	C143.371735,233.774902 141.741745,233.364487 139.561478,232.605515 
	C137.285431,229.866135 135.559631,227.475311 133.833832,225.084488 
z"/>
<path fill="#ECF4F7" opacity="1.000000" stroke="none" 
	d="
M140.879944,196.818115 
	C132.457169,201.374283 132.554504,209.175156 132.837631,217.539230 
	C132.492493,216.258774 132.425934,214.467667 131.918518,212.811646 
	C131.510254,211.479187 130.568649,210.310165 129.479340,209.037598 
	C129.227142,203.949005 129.359314,198.891449 129.650635,193.387344 
	C130.298965,192.994110 130.964996,192.860443 131.249802,193.129807 
	C133.927124,195.662064 137.057861,196.843781 140.879944,196.818115 
z"/>
<path fill="#183466" opacity="1.000000" stroke="none" 
	d="
M182.964447,220.701401 
	C181.979034,223.449539 180.697861,226.135788 180.105576,228.966187 
	C179.663971,231.076553 180.446274,232.776154 183.410019,232.528214 
	C185.842361,232.324722 188.355072,232.669907 190.793716,233.031311 
	C197.995132,234.098557 203.688858,231.231522 209.015900,226.295746 
	C207.148727,231.527145 203.001862,234.017288 197.354904,234.142761 
	C193.041977,234.238617 188.694824,233.854340 184.418762,234.265152 
	C179.679642,234.720444 178.049591,232.876266 178.725830,228.392105 
	C178.848022,227.581818 178.730453,226.735367 178.765533,225.081573 
	C178.781540,223.487030 178.755615,222.716553 178.729675,221.946060 
	C178.729675,221.946060 178.931229,221.530228 179.259521,221.215332 
	C179.736984,220.775513 179.886154,220.650574 180.405243,220.470566 
	C181.504929,220.510788 182.234695,220.606094 182.964447,220.701401 
z"/>
<path fill="#183466" opacity="1.000000" stroke="none" 
	d="
M186.172363,215.802002 
	C188.773376,212.984085 192.245468,212.054977 195.533051,214.473587 
	C197.030838,215.575470 197.465469,218.122467 198.382309,220.014008 
	C196.585037,220.823898 194.848404,222.028061 192.971008,222.316727 
	C191.515289,222.540527 189.883698,221.620453 188.154694,220.930481 
	C189.380402,220.511566 190.781693,220.371017 192.979340,220.210770 
	C194.816193,219.459503 195.856674,218.727966 196.897156,217.996429 
	C195.593979,217.389374 194.290787,216.782333 192.987595,216.175278 
	C190.840454,216.095383 188.693298,216.015488 186.172363,215.802002 
z"/>
<path fill="#183466" opacity="1.000000" stroke="none" 
	d="
M210.129486,181.618805 
	C206.660431,181.370255 203.263107,180.582413 199.828781,180.355881 
	C199.306854,180.321457 198.137741,182.872864 198.083282,184.260239 
	C197.876999,189.516296 198.006149,194.785538 198.005249,200.525253 
	C198.000656,201.000671 197.985184,201.021500 197.985184,201.021500 
	C197.799026,201.005722 197.612885,200.989944 197.148636,200.941681 
	C196.873642,195.602417 196.883179,190.295654 196.878326,184.988892 
	C196.871857,177.909912 196.867050,177.908829 203.739502,177.909805 
	C205.231949,177.910004 206.914185,177.501160 208.155731,178.062332 
	C209.118912,178.497681 209.531708,180.150757 210.129486,181.618805 
z"/>
<path fill="#ECF4F7" opacity="1.000000" stroke="none" 
	d="
M107.537689,232.921112 
	C107.192818,228.933029 106.961662,224.834915 107.281563,220.780289 
	C107.366882,219.698807 109.138916,218.750381 110.566353,217.854675 
	C111.133064,221.500198 106.543289,224.884247 110.631950,228.710922 
	C110.823616,228.890320 108.832504,231.401932 107.537689,232.921112 
z"/>
<path fill="#ECF4F7" opacity="1.000000" stroke="none" 
	d="
M139.927780,178.704834 
	C139.654480,182.662308 139.316666,186.353119 139.132599,190.459625 
	C138.779343,190.909454 138.272339,190.943588 137.382675,190.988861 
	C137.000000,191.000000 136.996460,190.996841 136.996460,190.996841 
	C136.743912,187.723190 136.196976,184.429672 136.415787,181.187836 
	C136.482590,180.198227 138.655106,179.350754 139.927780,178.704834 
z"/>
<path fill="#183466" opacity="1.000000" stroke="none" 
	d="
M174.535004,193.417023 
	C175.114563,198.023956 175.550949,203.080948 175.969727,208.608948 
	C173.124100,204.245697 174.073441,199.024033 174.535004,193.417023 
z"/>
<path fill="#ECF4F7" opacity="1.000000" stroke="none" 
	d="
M141.052246,191.477234 
	C144.632538,191.121414 148.277359,190.934769 151.911285,191.061234 
	C155.555176,191.188049 155.910446,192.262955 153.406189,195.952423 
	C152.813156,189.331818 147.992569,192.766022 145.019943,192.244934 
	C143.729980,192.018829 142.415390,191.933136 141.052246,191.477234 
z"/>
<path fill="#ECF4F7" opacity="1.000000" stroke="none" 
	d="
M145.351364,234.401703 
	C151.672623,234.111053 158.343506,234.036774 165.475311,233.902161 
	C164.979553,234.428513 164.008652,235.541321 163.068497,235.515915 
	C157.275482,235.359344 151.489380,234.946045 145.351364,234.401703 
z"/>
<path fill="#ECF4F7" opacity="1.000000" stroke="none" 
	d="
M116.645210,177.591248 
	C109.976166,177.857224 102.956009,177.908539 95.470718,177.903076 
	C102.101753,177.689713 109.197922,177.533142 116.645210,177.591248 
z"/>
<path fill="#ECF4F7" opacity="1.000000" stroke="none" 
	d="
M128.846863,185.121796 
	C126.327377,183.293900 123.848190,181.064972 121.118927,178.622406 
	C124.942513,176.755280 127.692604,178.920135 128.846863,185.121796 
z"/>
<path fill="#ECF4F7" opacity="1.000000" stroke="none" 
	d="
M94.002823,234.403946 
	C97.677231,234.112701 101.364098,234.170334 105.506821,234.276596 
	C102.765831,234.998779 99.585724,235.788376 96.358849,236.253784 
	C95.664268,236.353958 94.800903,235.283844 94.002823,234.403946 
z"/>
<path fill="#E7F1F7" opacity="1.000000" stroke="none" 
	d="
M168.973297,186.168610 
	C168.770386,186.457993 168.342621,186.281464 168.168091,185.805328 
	C167.016373,183.879654 166.039169,182.430099 165.061966,180.980560 
	C167.106552,178.838150 168.702744,180.412643 169.587067,181.988129 
	C170.107880,182.915955 169.355789,184.558243 168.973297,186.168610 
z"/>
<path fill="#ECF4F7" opacity="1.000000" stroke="none" 
	d="
M133.638229,225.034546 
	C135.559631,227.475311 137.285431,229.866135 139.207428,232.545792 
	C134.304123,232.607742 132.640732,230.724136 133.017242,225.199738 
	C133.062637,224.848068 133.442627,224.984589 133.638229,225.034546 
z"/>
<path fill="#EBF6FA" opacity="1.000000" stroke="none" 
	d="
M192.990051,216.558075 
	C194.290787,216.782333 195.593979,217.389374 196.897156,217.996429 
	C195.856674,218.727966 194.816193,219.459503 193.389801,220.097260 
	C193.000122,218.982590 192.996323,217.961731 192.990051,216.558075 
z"/>
<path fill="#EBF6FA" opacity="1.000000" stroke="none" 
	d="
M183.249054,220.522644 
	C182.234695,220.606094 181.504929,220.510788 180.403656,220.273071 
	C180.032135,220.130661 179.948013,219.744766 179.948013,219.744766 
	C181.520462,219.694489 183.092926,219.644211 184.885925,219.850342 
	C185.106461,220.106766 185.164474,220.114746 185.001221,220.076599 
	C184.602554,220.008316 184.385864,220.058640 184.187866,220.189392 
	C183.969818,220.240875 183.751755,220.292374 183.249054,220.522644 
z"/>
<path fill="#132E5F" opacity="1.000000" stroke="none" 
	d="
M164.818222,180.942001 
	C166.039169,182.430099 167.016373,183.879654 167.985168,185.663666 
	C166.668060,184.532104 165.359360,183.066101 164.066696,181.230591 
	C164.082733,180.861084 164.574478,180.903442 164.818222,180.942001 
z"/>
<path fill="#183466" opacity="1.000000" stroke="none" 
	d="
M210.772369,217.595612 
	C210.468979,216.721695 210.256119,215.451767 210.313202,214.082855 
	C210.676392,215.055801 210.769638,216.127701 210.772369,217.595612 
z"/>
<path fill="#EBF6FA" opacity="1.000000" stroke="none" 
	d="
M179.846161,214.150116 
	C178.904480,213.373764 177.962784,212.597427 177.245361,211.404938 
	C177.638077,211.005386 177.806534,211.021988 177.974976,211.038574 
	C177.974976,211.038574 178.001938,211.001541 178.073181,211.302856 
	C178.819809,212.339386 179.495178,213.074600 180.089767,213.895172 
	C180.008987,213.980560 179.846161,214.150116 179.846161,214.150116 
z"/>
<path fill="#EBF6FA" opacity="1.000000" stroke="none" 
	d="
M184.022247,215.471329 
	C182.717422,215.222290 181.412613,214.973267 179.976974,214.437164 
	C179.846161,214.150116 180.008987,213.980560 180.377594,213.954453 
	C181.127563,214.004868 181.508926,214.081375 181.890305,214.157898 
	C181.890305,214.157898 181.924866,214.046158 182.081329,214.351501 
	C182.832611,214.928329 183.427429,215.199829 184.022247,215.471329 
z"/>
<path fill="#ECF4F7" opacity="1.000000" stroke="none" 
	d="
M118.169128,218.119263 
	C118.767097,217.623611 119.567726,217.355652 120.689835,217.122009 
	C120.131462,217.553207 119.251625,217.950089 118.169128,218.119263 
z"/>
<path fill="#183466" opacity="1.000000" stroke="none" 
	d="
M209.505280,226.047760 
	C209.485062,224.941528 209.713867,223.616379 210.250458,222.138641 
	C210.290268,223.266983 210.022293,224.547913 209.505280,226.047760 
z"/>
<path fill="#ECF4F7" opacity="1.000000" stroke="none" 
	d="
M137.001678,191.001801 
	C136.736679,191.719254 136.470001,192.434921 136.203339,193.150589 
	C135.930817,193.016769 135.658310,192.882950 135.385803,192.749130 
	C135.735565,192.207596 136.085342,191.666061 136.715790,191.060684 
	C136.996460,190.996841 137.000000,191.000000 137.001678,191.001801 
z"/>
<path fill="#D8E5EF" opacity="1.000000" stroke="none" 
	d="
M178.493225,221.991913 
	C178.755615,222.716553 178.781540,223.487030 178.697693,224.627808 
	C178.477554,224.011307 178.367172,223.024521 178.493225,221.991913 
z"/>
<path fill="#183466" opacity="1.000000" stroke="none" 
	d="
M210.668777,192.684906 
	C210.407135,192.388535 210.249847,191.758865 210.318665,191.061066 
	C210.620895,191.445816 210.697021,191.898727 210.668777,192.684906 
z"/>
<path fill="#183466" opacity="1.000000" stroke="none" 
	d="
M177.915649,210.724792 
	C177.806534,211.021988 177.638077,211.005386 177.226349,211.061829 
	C176.660385,210.644257 176.337692,210.153641 175.965240,209.353256 
	C176.562439,209.499329 177.209396,209.955154 177.915649,210.724792 
z"/>
<path fill="#183466" opacity="1.000000" stroke="none" 
	d="
M210.672729,184.678909 
	C210.373016,184.160599 210.167267,183.310913 210.003082,182.196030 
	C210.285339,182.736404 210.526016,183.541962 210.672729,184.678909 
z"/>
<path fill="#183466" opacity="1.000000" stroke="none" 
	d="
M184.290375,215.510300 
	C183.427429,215.199829 182.832611,214.928329 182.040344,214.393219 
	C182.783783,214.375595 183.724655,214.621582 184.881424,215.179550 
	C184.917709,215.510757 184.738113,215.530014 184.290375,215.510300 
z"/>
<path fill="#ECF4F7" opacity="1.000000" stroke="none" 
	d="
M144.200134,196.086533 
	C143.850677,196.455109 143.250717,196.700241 142.321854,196.903534 
	C142.645187,196.562164 143.297394,196.262619 144.200134,196.086533 
z"/>
<path fill="#B1C2D3" opacity="1.000000" stroke="none" 
	d="
M169.497223,189.889008 
	C169.216766,189.609314 169.093246,189.146118 169.028198,188.323318 
	C169.275833,188.544312 169.464996,189.124908 169.497223,189.889008 
z"/>
<path fill="#132E5F" opacity="1.000000" stroke="none" 
	d="
M158.504211,178.522736 
	C158.125183,178.826080 157.494278,178.892151 156.388443,178.967102 
	C156.693130,178.745804 157.472733,178.515625 158.504211,178.522736 
z"/>
<path fill="#132E5F" opacity="1.000000" stroke="none" 
	d="
M162.029922,179.572296 
	C161.628540,179.702103 161.041885,179.575607 160.236725,179.234558 
	C160.627029,179.118652 161.235840,179.217316 162.029922,179.572296 
z"/>
<path fill="#132E5F" opacity="1.000000" stroke="none" 
	d="
M163.992981,180.631226 
	C163.567230,180.701431 162.995163,180.493698 162.256958,180.018799 
	C162.676102,179.952164 163.261368,180.152710 163.992981,180.631226 
z"/>
<path fill="#ECF4F7" opacity="1.000000" stroke="none" 
	d="
M129.393372,187.873566 
	C129.221420,187.832306 129.150009,187.674240 129.115967,187.258698 
	C129.468994,187.170349 129.582535,187.422195 129.393372,187.873566 
z"/>
<path fill="#ECF4F7" opacity="1.000000" stroke="none" 
	d="
M91.518173,177.490112 
	C91.529465,177.516190 91.506882,177.464035 91.518173,177.490112 
z"/>
<path fill="#ECF4F7" opacity="1.000000" stroke="none" 
	d="
M93.907173,178.220963 
	C93.992661,178.417236 93.828064,178.770264 93.411362,179.273926 
	C93.325211,179.075607 93.491150,178.726654 93.907173,178.220963 
z"/>
<path fill="#ECF4F7" opacity="1.000000" stroke="none" 
	d="
M128.397034,210.826187 
	C128.294205,210.666885 128.373795,210.339966 128.672226,209.873962 
	C128.898376,210.080276 128.794510,210.388184 128.397034,210.826187 
z"/>
<path fill="#ECF4F7" opacity="1.000000" stroke="none" 
	d="
M127.228455,212.842636 
	C127.144966,212.666229 127.273178,212.327728 127.645752,211.860474 
	C127.740135,212.047974 127.590149,212.364273 127.228455,212.842636 
z"/>
<path fill="#ECF4F7" opacity="1.000000" stroke="none" 
	d="
M124.050903,215.839630 
	C124.028473,215.652023 124.250137,215.384598 124.740280,215.076767 
	C124.770836,215.277496 124.532913,215.518661 124.050903,215.839630 
z"/>
<path fill="#ECF4F7" opacity="1.000000" stroke="none" 
	d="
M132.665207,220.109985 
	C132.830811,220.166962 132.886658,220.331436 132.876114,220.747833 
	C132.514420,220.799179 132.429657,220.538422 132.665207,220.109985 
z"/>
<path fill="#D8E5EF" opacity="1.000000" stroke="none" 
	d="
M179.752747,219.938126 
	C179.948013,219.744766 180.032135,220.130661 180.033722,220.328156 
	C179.886154,220.650574 179.736984,220.775513 179.309967,220.989853 
	C179.207245,220.763321 179.382370,220.447403 179.752747,219.938126 
z"/>
<path fill="#E1EBF4" opacity="1.000000" stroke="none" 
	d="
M107.161888,203.669006 
	C107.161888,199.761978 107.161888,195.854950 107.161888,190.613266 
	C109.775551,191.274185 112.402023,191.938339 115.335327,193.302063 
	C115.761093,204.297668 115.761093,204.297668 107.161888,203.669006 
z"/>
<path fill="#112D5F" opacity="1.000000" stroke="none" 
	d="
M107.140800,204.059296 
	C115.761093,204.297668 115.761093,204.297668 115.613808,193.566895 
	C119.273880,199.957047 117.158562,205.772873 110.534157,206.510941 
	C109.485580,206.627762 108.262245,205.176071 107.140800,204.059296 
z"/>
<path fill="#E7EFF4" opacity="1.000000" stroke="none" 
	d="
M153.978165,209.055389 
	C154.156082,213.145859 154.334015,217.236343 153.861420,221.561432 
	C151.161713,221.472641 149.112534,221.149246 147.063354,220.825836 
	C147.063354,220.825836 147.053101,220.385834 147.006042,219.743103 
	C146.922211,216.400665 146.885422,213.700928 146.848633,211.001205 
	C147.394974,210.419693 147.941299,209.838165 149.159882,209.171463 
	C151.214127,209.075974 152.596146,209.065674 153.978165,209.055389 
z"/>
<path fill="#0E2D62" opacity="1.000000" stroke="none" 
	d="
M147.058594,221.167923 
	C149.112534,221.149246 151.161713,221.472641 153.613586,221.831497 
	C151.561768,224.355865 149.217499,224.694504 147.058594,221.167923 
z"/>
<path fill="#0E2D62" opacity="1.000000" stroke="none" 
	d="
M146.633636,211.323563 
	C146.885422,213.700928 146.922211,216.400665 146.904724,219.547775 
	C146.706512,217.212082 146.562576,214.429001 146.633636,211.323563 
z"/>
<path fill="#0E2D62" opacity="1.000000" stroke="none" 
	d="
M153.733917,208.813980 
	C152.596146,209.065674 151.214127,209.075974 149.421906,209.018753 
	C150.504364,208.825012 151.997025,208.698792 153.733917,208.813980 
z"/>
<path fill="#183466" opacity="1.000000" stroke="none" 
	d="
M181.860443,213.798340 
	C181.508926,214.081375 181.127563,214.004868 180.458374,213.869080 
	C179.495178,213.074600 178.819809,212.339386 178.053986,211.314941 
	C179.252533,211.830078 180.541565,212.634430 181.860443,213.798340 
z"/>
<path fill="#D8E5EF" opacity="1.000000" stroke="none" 
	d="
M184.322372,220.344635 
	C184.385864,220.058640 184.602554,220.008316 184.995270,220.105331 
	C185.003372,220.457245 184.771469,220.566452 184.322372,220.344635 
z"/>
<path fill="#183466" opacity="1.000000" stroke="none" 
	d="
M198.011017,200.992874 
	C198.021362,200.985077 198.320099,201.196625 198.320099,201.196625 
	C198.320099,201.196625 198.084335,201.188110 198.034760,201.104797 
	C197.985184,201.021500 198.000656,201.000671 198.011017,200.992874 
z"/>
</svg>